<svg width="111" height="79" viewBox="0 0 111 79" fill="none" xmlns="http://www.w3.org/2000/svg">
<path d="M44 77V2H109V58.5069L92.8621 77H44Z" stroke="#A9B6BF" stroke-width="3"/>
<path d="M93 77V59H109" stroke="#A9B6BF" stroke-width="3"/>
<path d="M1.25948 70.7514C0.539044 71.1603 0.286557 72.0759 0.695535 72.7963C1.10451 73.5168 2.02008 73.7693 2.74052 73.3603L1.25948 70.7514ZM40.0578 48.7263L1.25948 70.7514L2.74052 73.3603L41.5389 51.3352L40.0578 48.7263Z" fill="#A9B6BF"/>
<path d="M73.3735 58.7531C62.0065 65.2059 47.5607 61.2222 41.1079 49.8552C34.655 38.4882 38.6388 24.0423 50.0058 17.5895C61.3728 11.1367 75.8186 15.1204 82.2714 26.4874C88.7243 37.8544 84.7405 52.3002 73.3735 58.7531Z" fill="#010514" stroke="#A9B6BF" stroke-width="3"/>
<path d="M61.4547 28.5315C62.332 28.5315 63.1067 28.6528 63.7787 28.8955C64.4693 29.1382 65.048 29.4742 65.5147 29.9035C65.9813 30.3142 66.336 30.8182 66.5787 31.4155C66.8213 31.9942 66.9427 32.6195 66.9427 33.2915C66.9427 34.2808 66.7 35.1582 66.2147 35.9235C65.7293 36.6888 65.076 37.4822 64.2547 38.3035C63.844 38.6955 63.4987 39.0315 63.2187 39.3115C62.9387 39.5915 62.7053 39.8435 62.5187 40.0675C62.3507 40.2728 62.22 40.4782 62.1267 40.6835C62.052 40.8888 62.0147 41.1222 62.0147 41.3835C62.0147 41.7382 62.0707 42.0648 62.1827 42.3635L59.1587 42.7835C59.084 42.5782 59.0187 42.3355 58.9627 42.0555C58.9067 41.7568 58.8787 41.4582 58.8787 41.1595C58.8787 40.7675 58.9253 40.4128 59.0187 40.0955C59.112 39.7595 59.252 39.4422 59.4387 39.1435C59.6253 38.8262 59.84 38.5182 60.0827 38.2195C60.344 37.9208 60.6427 37.5942 60.9787 37.2395C61.7067 36.4928 62.248 35.8582 62.6027 35.3355C62.976 34.8128 63.1627 34.1968 63.1627 33.4875C63.1627 32.9462 62.976 32.4795 62.6027 32.0875C62.2293 31.6955 61.6787 31.4995 60.9507 31.4995C60.484 31.4995 60.0547 31.5648 59.6627 31.6955C59.2707 31.8262 58.8507 32.0502 58.4027 32.3675L57.0587 29.8475C57.6373 29.4368 58.3 29.1195 59.0467 28.8955C59.7933 28.6528 60.596 28.5315 61.4547 28.5315ZM58.8227 46.6755C58.8227 46.0782 59.028 45.5742 59.4387 45.1635C59.868 44.7528 60.372 44.5475 60.9507 44.5475C61.5107 44.5475 61.996 44.7528 62.4067 45.1635C62.836 45.5742 63.0507 46.0782 63.0507 46.6755C63.0507 47.3288 62.836 47.8608 62.4067 48.2715C61.996 48.6635 61.5107 48.8595 60.9507 48.8595C60.372 48.8595 59.868 48.6635 59.4387 48.2715C59.028 47.8608 58.8227 47.3288 58.8227 46.6755Z" fill="#A9B6BF"/>
</svg>
